<?xml version="1.0" encoding="utf-8"?>
<!-- Generator: Adobe Illustrator 16.0.4, SVG Export Plug-In . SVG Version: 6.00 Build 0)  -->
<!DOCTYPE svg PUBLIC "-//W3C//DTD SVG 1.1//EN" "http://www.w3.org/Graphics/SVG/1.1/DTD/svg11.dtd">
<svg version="1.1" id="Layer_1" xmlns="http://www.w3.org/2000/svg" xmlns:xlink="http://www.w3.org/1999/xlink" x="0px" y="0px"
	 width="494.2px" height="108.7px" viewBox="0 0 494.2 108.7" enable-background="new 0 0 494.2 108.7" xml:space="preserve">
<g>
	<path fill="#C61C24" d="M70.6,16.3h41.2v12.5H85.9v15.4h24.2v12.4H85.9v27.1H70.6V16.3z"/>
	<path fill="#C61C24" d="M118.3,12.7h15.2v71h-15.2V12.7z"/>
	<path fill="#C61C24" d="M191.1,58.7c0,17.9-12.7,26.1-25.8,26.1c-14.3,0-25.3-9.4-25.3-25.2s10.4-25.9,26.1-25.9
		C181.1,33.7,191.1,44,191.1,58.7z M155.7,59.2c0,8.4,3.5,14.7,10,14.7c5.9,0,9.7-5.9,9.7-14.7c0-7.3-2.8-14.7-9.7-14.7
		C158.4,44.5,155.7,52,155.7,59.2z"/>
	<path fill="#231F20" d="M187.4,92.7c4-0.3,7.1-1.2,9-3.2c2.2-2.3,3-6.2,3-15.9V34.8h15.3v42.4c0,10.7-2.4,17.2-6.9,21.4
		c-4.5,4.2-11.6,6-18.9,6L187.4,92.7z M215.1,21.2c0,4.2-3.1,7.6-8.2,7.6c-4.8,0-7.9-3.4-7.9-7.6c0-4.4,3.1-7.7,8.1-7.7
		C212,13.5,215,16.8,215.1,21.2z"/>
	<path fill="#231F20" d="M269.7,68c0,6.4,0.2,11.6,0.4,15.7h-13.2l-0.7-6.9h-0.3c-1.9,3-6.5,8-15.3,8c-9.9,0-17.2-6.2-17.2-21.3
		V34.8h15.3v26.3c0,7.1,2.3,11.4,7.6,11.4c4.2,0,6.6-2.9,7.6-5.3c0.4-0.9,0.5-2.1,0.5-3.3V34.8h15.3V68z"/>
	<path fill="#231F20" d="M325.6,34.8c-0.2,3.1-0.4,7.2-0.4,14.5v27.3c0,9.4-1.9,17.1-7.4,22c-5.4,4.6-12.7,6-19.9,6
		c-6.4,0-13.2-1.3-17.6-3.8l3-11.5c3.1,1.8,8.5,3.7,14.2,3.7c7.2,0,12.7-3.9,12.7-12.9v-3.2H310c-2.9,4.1-7.6,6.4-13.2,6.4
		c-12.1,0-20.7-9.8-20.7-23.9c0-15.7,10.2-25.7,22.2-25.7c6.7,0,10.9,2.9,13.4,6.9h0.2l0.5-5.8H325.6z M310,54.7c0-1-0.1-2-0.3-2.8
		c-1.1-4-4-6.7-8.2-6.7c-5.5,0-10,5-10,13.9c0,7.3,3.6,13,10,13c3.9,0,7-2.6,8-6.2c0.4-1.1,0.5-2.7,0.5-4V54.7z"/>
	<path fill="#231F20" d="M381.1,34.8c-0.2,3.1-0.4,7.2-0.4,14.5v27.3c0,9.4-1.9,17.1-7.4,22c-5.4,4.6-12.7,6-19.9,6
		c-6.4,0-13.2-1.3-17.6-3.8l3-11.5c3.1,1.8,8.5,3.7,14.2,3.7c7.2,0,12.7-3.9,12.7-12.9v-3.2h-0.2c-2.9,4.1-7.6,6.4-13.2,6.4
		c-12.1,0-20.7-9.8-20.7-23.9c0-15.7,10.2-25.7,22.2-25.7c6.7,0,10.9,2.9,13.4,6.9h0.2l0.5-5.8H381.1z M365.5,54.7
		c0-1-0.1-2-0.3-2.8c-1.1-4-4-6.7-8.2-6.7c-5.5,0-10,5-10,13.9c0,7.3,3.6,13,10,13c3.9,0,7-2.6,8-6.2c0.4-1.1,0.5-2.7,0.5-4V54.7z"
		/>
	<path fill="#231F20" d="M389.9,12.7h15.2v71h-15.2V12.7z"/>
	<path fill="#231F20" d="M426.1,64.1c0.5,6.3,6.7,9.3,13.8,9.3c5.2,0,9.4-0.7,13.5-2l2,10.3c-5,2-11.1,3-17.7,3
		c-16.6,0-26.1-9.6-26.1-24.9c0-12.4,7.7-26.1,24.7-26.1c15.8,0,21.8,12.3,21.8,24.4c0,2.6-0.3,4.9-0.5,6H426.1z M444,53.7
		c0-3.7-1.6-9.9-8.6-9.9c-6.4,0-9,5.8-9.4,9.9H444z"/>
	<path fill="#231F20" d="M464.2,50.9c0-7.2-0.2-11.9-0.4-16.1h13.1l0.5,9h0.4c2.5-7.1,8.5-10.1,13.2-10.1c1.4,0,2.1,0,3.2,0.2v14.3
		c-1.1-0.2-2.4-0.4-4.1-0.4c-5.6,0-9.4,3-10.4,7.7c-0.2,1-0.3,2.2-0.3,3.4v24.8h-15.2V50.9z"/>
</g>
<g>
	<linearGradient id="SVGID_1_" gradientUnits="userSpaceOnUse" x1="42.9072" y1="95.8149" x2="4.102" y2="28.6024">
		<stop  offset="0" style="stop-color:#EA2227"/>
		<stop  offset="1" style="stop-color:#BD202E"/>
	</linearGradient>
	<path fill="url(#SVGID_1_)" d="M57.5,70.7c0,15.9-12.9,28.8-28.8,28.8C12.9,99.5,0,86.6,0,70.7c0-15.9,28.8-56.6,28.8-56.4
		C29.1,27.8,57.5,54.9,57.5,70.7z"/>
	<g>
		<g>
			<path fill="#FFFFFF" d="M45.7,83.9c2.3-1.8,3.7-4.5,3.7-7.5c0-3.4-5.3-3.4-5.3,0c0,1.5-0.8,2.7-2.1,3.8c-1.1,0.9-0.9,2.8,0,3.7
				C43,85,44.5,84.8,45.7,83.9L45.7,83.9z"/>
		</g>
	</g>
</g>
<g>
</g>
<g>
</g>
<g>
</g>
<g>
</g>
<g>
</g>
<g>
</g>
</svg>
