<?xml version="1.0" encoding="utf-8"?>
<!-- Generator: Adobe Illustrator 16.0.4, SVG Export Plug-In . SVG Version: 6.00 Build 0)  -->
<!DOCTYPE svg PUBLIC "-//W3C//DTD SVG 1.1//EN" "http://www.w3.org/Graphics/SVG/1.1/DTD/svg11.dtd">
<svg version="1.1" id="Layer_1" xmlns="http://www.w3.org/2000/svg" xmlns:xlink="http://www.w3.org/1999/xlink" x="0px" y="0px"
	 width="430.2px" height="108.7px" viewBox="0 0 430.2 108.7" enable-background="new 0 0 430.2 108.7" xml:space="preserve">
<g>
	<path fill="#C61C24" d="M6.6,16.3h41.2v12.5H21.9v15.4h24.2v12.4H21.9v27.1H6.6V16.3z"/>
	<path fill="#C61C24" d="M54.3,12.7h15.2v71H54.3V12.7z"/>
	<path fill="#C61C24" d="M127.1,58.7c0,17.9-12.7,26.1-25.8,26.1C87,84.8,76,75.4,76,59.6s10.4-25.9,26.1-25.9
		C117.1,33.7,127.1,44,127.1,58.7z M91.7,59.2c0,8.4,3.5,14.7,10,14.7c5.9,0,9.7-5.9,9.7-14.7c0-7.3-2.8-14.7-9.7-14.7
		C94.4,44.5,91.7,52,91.7,59.2z"/>
	<path fill="#231F20" d="M123.4,92.7c4-0.3,7.1-1.2,9-3.2c2.2-2.3,3-6.2,3-15.9V34.8h15.3v42.4c0,10.7-2.4,17.2-6.9,21.4
		c-4.5,4.2-11.6,6-18.9,6L123.4,92.7z M151.1,21.2c0,4.2-3.1,7.6-8.2,7.6c-4.8,0-7.9-3.4-7.9-7.6c0-4.4,3.1-7.7,8.1-7.7
		C148,13.5,151,16.8,151.1,21.2z"/>
	<path fill="#231F20" d="M205.7,68c0,6.4,0.2,11.6,0.4,15.7h-13.2l-0.7-6.9h-0.3c-1.9,3-6.5,8-15.3,8c-9.9,0-17.2-6.2-17.2-21.3
		V34.8h15.3v26.3c0,7.1,2.3,11.4,7.6,11.4c4.2,0,6.6-2.9,7.6-5.3c0.4-0.9,0.5-2.1,0.5-3.3V34.8h15.3V68z"/>
	<path fill="#231F20" d="M261.6,34.8c-0.2,3.1-0.4,7.2-0.4,14.5v27.3c0,9.4-1.9,17.1-7.4,22c-5.4,4.6-12.7,6-19.9,6
		c-6.4,0-13.2-1.3-17.6-3.8l3-11.5c3.1,1.8,8.5,3.7,14.2,3.7c7.2,0,12.7-3.9,12.7-12.9v-3.2H246c-2.9,4.1-7.6,6.4-13.2,6.4
		c-12.1,0-20.7-9.8-20.7-23.9c0-15.7,10.2-25.7,22.2-25.7c6.7,0,10.9,2.9,13.4,6.9h0.2l0.5-5.8H261.6z M246,54.7c0-1-0.1-2-0.3-2.8
		c-1.1-4-4-6.7-8.2-6.7c-5.5,0-10,5-10,13.9c0,7.3,3.6,13,10,13c3.9,0,7-2.6,8-6.2c0.4-1.1,0.5-2.7,0.5-4V54.7z"/>
	<path fill="#231F20" d="M317.1,34.8c-0.2,3.1-0.4,7.2-0.4,14.5v27.3c0,9.4-1.9,17.1-7.4,22c-5.4,4.6-12.7,6-19.9,6
		c-6.4,0-13.2-1.3-17.6-3.8l3-11.5c3.1,1.8,8.5,3.7,14.2,3.7c7.2,0,12.7-3.9,12.7-12.9v-3.2h-0.2c-2.9,4.1-7.6,6.4-13.2,6.4
		c-12.1,0-20.7-9.8-20.7-23.9c0-15.7,10.2-25.7,22.2-25.7c6.7,0,10.9,2.9,13.4,6.9h0.2l0.5-5.8H317.1z M301.5,54.7
		c0-1-0.1-2-0.3-2.8c-1.1-4-4-6.7-8.2-6.7c-5.5,0-10,5-10,13.9c0,7.3,3.6,13,10,13c3.9,0,7-2.6,8-6.2c0.4-1.1,0.5-2.7,0.5-4V54.7z"
		/>
	<path fill="#231F20" d="M325.9,12.7h15.2v71h-15.2V12.7z"/>
	<path fill="#231F20" d="M362.1,64.1c0.5,6.3,6.7,9.3,13.8,9.3c5.2,0,9.4-0.7,13.5-2l2,10.3c-5,2-11.1,3-17.7,3
		c-16.6,0-26.1-9.6-26.1-24.9c0-12.4,7.7-26.1,24.7-26.1c15.8,0,21.8,12.3,21.8,24.4c0,2.6-0.3,4.9-0.5,6H362.1z M380,53.7
		c0-3.7-1.6-9.9-8.6-9.9c-6.4,0-9,5.8-9.4,9.9H380z"/>
	<path fill="#231F20" d="M400.2,50.9c0-7.2-0.2-11.9-0.4-16.1h13.1l0.5,9h0.4c2.5-7.1,8.5-10.1,13.2-10.1c1.4,0,2.1,0,3.2,0.2v14.3
		c-1.1-0.2-2.4-0.4-4.1-0.4c-5.6,0-9.4,3-10.4,7.7c-0.2,1-0.3,2.2-0.3,3.4v24.8h-15.2V50.9z"/>
</g>
</svg>
