<?xml version="1.0" encoding="utf-8"?>
<!-- Generator: Adobe Illustrator 16.0.4, SVG Export Plug-In . SVG Version: 6.00 Build 0)  -->
<!DOCTYPE svg PUBLIC "-//W3C//DTD SVG 1.1//EN" "http://www.w3.org/Graphics/SVG/1.1/DTD/svg11.dtd">
<svg version="1.1" id="Layer_1" xmlns="http://www.w3.org/2000/svg" xmlns:xlink="http://www.w3.org/1999/xlink" x="0px" y="0px"
	 width="385.3px" height="119.5px" viewBox="0 0 385.3 119.5" enable-background="new 0 0 385.3 119.5" xml:space="preserve">
<g>
	<path fill="#D90000" d="M15.7,39.4v46.3H9.4V39.4H0.6v-5.3h8.8v-4.7c0-2.2,0.2-4.2,0.5-6.1c0.3-1.9,1-3.5,1.9-4.8
		c0.9-1.3,2.2-2.4,3.9-3.1c1.6-0.7,3.7-1.1,6.2-1.1c0.9,0,1.8,0,2.6,0.1c0.8,0.1,1.7,0.2,2.7,0.3v5.4c-0.9-0.1-1.7-0.2-2.4-0.4
		c-0.7-0.1-1.5-0.1-2.2-0.1c-1.7,0-3.1,0.3-4,0.8c-0.9,0.5-1.6,1.2-2.1,2.1c-0.4,0.9-0.7,1.9-0.8,3.1c-0.1,1.2-0.1,2.5-0.1,3.9v4.5
		h10.2v5.3H15.7z"/>
	<path fill="#D90000" d="M38.3,14.3v71.4H32V14.3H38.3z"/>
	<path fill="#D90000" d="M82.6,34.8c3,1.5,5.6,3.4,7.6,5.9c2.1,2.5,3.6,5.4,4.7,8.6c1.1,3.3,1.6,6.8,1.6,10.6
		c0,3.7-0.5,7.2-1.6,10.5c-1.1,3.3-2.6,6.2-4.7,8.7c-2.1,2.5-4.6,4.4-7.6,5.8c-3,1.4-6.5,2.2-10.5,2.2c-3.9,0-7.4-0.7-10.4-2.2
		c-3-1.4-5.6-3.4-7.6-5.8c-2.1-2.5-3.6-5.4-4.7-8.7c-1.1-3.3-1.6-6.8-1.6-10.5c0-3.7,0.5-7.2,1.6-10.6c1.1-3.3,2.6-6.2,4.7-8.6
		c2.1-2.5,4.6-4.4,7.6-5.9c3-1.5,6.5-2.2,10.4-2.2C76.1,32.6,79.6,33.3,82.6,34.8z M64.3,39.8c-2.3,1.3-4.1,2.9-5.6,5
		c-1.5,2.1-2.6,4.4-3.4,7c-0.8,2.6-1.1,5.3-1.1,8.1c0,2.7,0.4,5.4,1.1,8c0.8,2.6,1.9,5,3.4,7c1.5,2.1,3.4,3.7,5.6,5
		c2.3,1.3,4.9,1.9,7.9,1.9s5.6-0.6,7.9-1.9c2.3-1.3,4.1-2.9,5.6-5c1.5-2.1,2.6-4.4,3.4-7c0.8-2.6,1.1-5.3,1.1-8
		c0-2.7-0.4-5.4-1.1-8.1c-0.8-2.6-1.9-5-3.4-7c-1.5-2.1-3.4-3.7-5.6-5c-2.3-1.3-4.9-1.9-7.9-1.9S66.6,38.5,64.3,39.8z"/>
	<path fill="#D90000" d="M112.4,34.1v56.3c0,1.9-0.1,3.8-0.4,5.5c-0.3,1.7-0.9,3.2-1.7,4.5c-0.8,1.3-2,2.3-3.4,3.1
		c-1.4,0.8-3.2,1.2-5.5,1.2c-0.7,0-1.4,0-2.1-0.1c-0.7-0.1-1.4-0.1-2.1-0.1v-5.2c0.5,0.1,1.1,0.1,1.7,0.2c0.6,0,1.1,0,1.6,0
		c2.5,0,4-0.7,4.7-2.2c0.7-1.4,1-3.2,1-5.3V34.1H112.4z M112.4,14.3v10.1h-6.3V14.3H112.4z"/>
	<path fill="#D90000" d="M160.5,85.7v-9.3h-0.2c-1.7,3.5-4.1,6.1-7.2,8c-3.2,1.8-6.7,2.8-10.5,2.8c-3.3,0-6-0.5-8.4-1.4
		c-2.3-0.9-4.2-2.2-5.6-3.8c-1.4-1.7-2.5-3.7-3.1-6.1c-0.7-2.4-1-5.1-1-8.2V34.1h6.3v33.6c0.1,4.7,1.2,8.2,3.2,10.6
		c2,2.4,5.5,3.6,10.5,3.6c2.7,0,5.1-0.6,7-1.8c1.9-1.2,3.5-2.7,4.8-4.7c1.3-1.9,2.2-4.1,2.8-6.6c0.6-2.5,0.9-5.1,0.9-7.7V34.1h6.3
		v51.6H160.5z"/>
	<path fill="#D90000" d="M220.5,91.8c-0.8,3.1-2.1,5.7-3.9,7.8c-1.8,2.1-4.2,3.8-7.1,4.9c-2.9,1.1-6.4,1.7-10.6,1.7
		c-2.6,0-5.1-0.3-7.6-0.9c-2.5-0.6-4.7-1.5-6.6-2.8c-2-1.3-3.6-2.9-4.9-4.8c-1.3-2-2-4.3-2.2-7h6.3c0.3,1.9,1,3.5,2,4.8
		c1,1.3,2.1,2.3,3.5,3.2c1.4,0.8,2.9,1.4,4.5,1.8c1.7,0.4,3.4,0.5,5.1,0.5c5.9,0,10.1-1.7,12.7-5c2.6-3.3,3.9-8.1,3.9-14.4v-7h-0.2
		c-1.5,3.2-3.6,5.8-6.4,7.7c-2.8,1.9-6.2,2.9-10,2.9c-4.1,0-7.7-0.7-10.6-2.1c-2.9-1.4-5.3-3.2-7.2-5.6c-1.9-2.4-3.3-5.2-4.1-8.5
		c-0.9-3.2-1.3-6.7-1.3-10.4c0-3.5,0.5-6.9,1.5-10c1-3.2,2.5-5.9,4.5-8.3c2-2.4,4.4-4.2,7.3-5.6c2.9-1.4,6.2-2.1,10-2.1
		c1.9,0,3.8,0.3,5.5,0.8c1.7,0.5,3.2,1.3,4.6,2.2c1.4,1,2.7,2.1,3.8,3.3c1.1,1.3,2,2.6,2.5,4h0.2v-8.9h6.3v47.4
		C221.8,85.3,221.4,88.7,220.5,91.8z M206.1,78c2.1-1.2,3.8-2.7,5.2-4.6c1.4-1.9,2.5-4.1,3.2-6.5c0.7-2.5,1-5,1-7.6
		c0-2.5-0.3-5.1-0.9-7.6c-0.6-2.5-1.6-4.8-2.9-6.9c-1.3-2.1-3-3.7-5.2-5c-2.1-1.3-4.6-1.9-7.6-1.9s-5.6,0.6-7.7,1.8
		c-2.1,1.2-3.9,2.9-5.3,4.9c-1.4,2-2.4,4.3-3,6.9c-0.6,2.6-1,5.2-1,7.8c0,2.6,0.3,5.1,1,7.6c0.7,2.5,1.7,4.6,3.1,6.5
		c1.4,1.9,3.2,3.4,5.3,4.6c2.1,1.2,4.7,1.8,7.6,1.8C201.6,79.8,204,79.2,206.1,78z"/>
	<path fill="#D90000" d="M276.1,91.8c-0.8,3.1-2.1,5.7-3.9,7.8c-1.8,2.1-4.2,3.8-7.1,4.9c-2.9,1.1-6.4,1.7-10.6,1.7
		c-2.6,0-5.1-0.3-7.6-0.9c-2.5-0.6-4.7-1.5-6.6-2.8c-2-1.3-3.6-2.9-4.9-4.8c-1.3-2-2-4.3-2.2-7h6.3c0.3,1.9,1,3.5,2,4.8
		c1,1.3,2.1,2.3,3.5,3.2c1.4,0.8,2.9,1.4,4.5,1.8c1.7,0.4,3.4,0.5,5.1,0.5c5.9,0,10.1-1.7,12.7-5c2.6-3.3,3.9-8.1,3.9-14.4v-7h-0.2
		c-1.5,3.2-3.6,5.8-6.4,7.7c-2.8,1.9-6.2,2.9-10,2.9c-4.1,0-7.7-0.7-10.6-2.1c-2.9-1.4-5.3-3.2-7.2-5.6c-1.9-2.4-3.3-5.2-4.1-8.5
		c-0.9-3.2-1.3-6.7-1.3-10.4c0-3.5,0.5-6.9,1.5-10c1-3.2,2.5-5.9,4.5-8.3c2-2.4,4.4-4.2,7.3-5.6c2.9-1.4,6.2-2.1,10-2.1
		c1.9,0,3.8,0.3,5.5,0.8c1.7,0.5,3.2,1.3,4.6,2.2c1.4,1,2.7,2.1,3.8,3.3c1.1,1.3,2,2.6,2.5,4h0.2v-8.9h6.3v47.4
		C277.4,85.3,277,88.7,276.1,91.8z M261.7,78c2.1-1.2,3.8-2.7,5.2-4.6c1.4-1.9,2.5-4.1,3.2-6.5c0.7-2.5,1-5,1-7.6
		c0-2.5-0.3-5.1-0.9-7.6c-0.6-2.5-1.6-4.8-2.9-6.9c-1.3-2.1-3-3.7-5.2-5c-2.1-1.3-4.6-1.9-7.6-1.9s-5.6,0.6-7.7,1.8
		c-2.1,1.2-3.9,2.9-5.3,4.9c-1.4,2-2.4,4.3-3,6.9c-0.6,2.6-1,5.2-1,7.8c0,2.6,0.3,5.1,1,7.6c0.7,2.5,1.7,4.6,3.1,6.5
		c1.4,1.9,3.2,3.4,5.3,4.6c2.1,1.2,4.7,1.8,7.6,1.8C257.2,79.8,259.6,79.2,261.7,78z"/>
	<path fill="#D90000" d="M295.8,14.3v71.4h-6.3V14.3H295.8z"/>
	<path fill="#D90000" d="M312.5,68.6c0.6,2.4,1.6,4.6,3,6.5c1.4,1.9,3.2,3.5,5.3,4.8c2.1,1.3,4.7,1.9,7.7,1.9
		c4.6,0,8.2-1.2,10.8-3.6c2.6-2.4,4.4-5.6,5.4-9.6h6.3c-1.3,5.9-3.8,10.4-7.4,13.6c-3.6,3.2-8.6,4.8-15.1,4.8
		c-4.1,0-7.6-0.7-10.5-2.2c-3-1.4-5.4-3.4-7.2-5.9c-1.9-2.5-3.2-5.4-4.2-8.7c-0.9-3.3-1.3-6.8-1.3-10.5c0-3.4,0.4-6.7,1.3-10
		c0.9-3.3,2.3-6.2,4.2-8.8c1.9-2.6,4.3-4.6,7.2-6.2c3-1.6,6.5-2.4,10.5-2.4c4.1,0,7.7,0.8,10.6,2.5c2.9,1.7,5.3,3.9,7.2,6.6
		c1.8,2.7,3.1,5.8,4,9.3c0.8,3.5,1.1,7,1,10.7h-39.7C311.6,63.9,311.9,66.2,312.5,68.6z M343.7,49.4c-0.8-2.2-1.8-4.2-3.2-5.9
		c-1.4-1.7-3.1-3.1-5.1-4.1c-2-1-4.3-1.5-6.8-1.5c-2.6,0-4.9,0.5-6.9,1.5c-2,1-3.7,2.4-5.1,4.1c-1.4,1.7-2.5,3.7-3.4,5.9
		c-0.8,2.2-1.4,4.5-1.6,6.9H345C344.9,53.9,344.5,51.6,343.7,49.4z"/>
	<path fill="#D90000" d="M365.6,34.1v12.1h0.2c1.6-4.2,4.1-7.4,7.5-9.7c3.4-2.3,7.4-3.3,12-3.1v6.3c-2.9-0.1-5.5,0.2-7.8,1.1
		c-2.3,0.9-4.4,2.2-6,3.9c-1.7,1.7-3,3.6-4,6c-0.9,2.3-1.4,4.8-1.4,7.5v27.5h-6.3V34.1H365.6z"/>
</g>
<g>
</g>
<g>
</g>
<g>
</g>
<g>
</g>
<g>
</g>
<g>
</g>
</svg>
