<?xml version="1.0" encoding="utf-8"?>
<!-- Generator: Adobe Illustrator 16.0.4, SVG Export Plug-In . SVG Version: 6.00 Build 0)  -->
<!DOCTYPE svg PUBLIC "-//W3C//DTD SVG 1.1//EN" "http://www.w3.org/Graphics/SVG/1.1/DTD/svg11.dtd">
<svg version="1.1" id="Layer_1" xmlns="http://www.w3.org/2000/svg" xmlns:xlink="http://www.w3.org/1999/xlink" x="0px" y="0px"
	 width="50px" height="50px" viewBox="0 0 50 50" enable-background="new 0 0 50 50" xml:space="preserve">
<rect fill="none" width="50" height="50"/>
<path fill="#CCCCCC" d="M45,45c0-0.007-0.002-0.013-0.002-0.02v-0.073H44.99c-0.621-8.979-12.311-7.686-14.057-12.38
	c-0.026-0.286-0.045-0.748-0.061-1.226c4.345-0.444,7.393-1.487,7.393-2.7c-0.012-0.002-0.011-0.051-0.011-0.07
	c-3.248-2.928,2.815-23.728-8.473-23.306c-0.709-0.6-1.95-1.133-3.73-1.133c-15.291,1.157-8.53,20.8-12.014,24.508
	c-0.002,0.002-0.005,0.002-0.007,0.002c0,0.002,0.001,0.004,0.001,0.006l-0.001,0.002c0,0,0.001,0,0.002,0
	c0.014,1.189,2.959,2.213,7.178,2.668c-0.012,0.291-0.037,0.649-0.092,1.25c-1.746,4.694-13.487,3.4-14.11,12.38H7V50h37.998v-5H45z
	"/>
</svg>
